<svg width="200" height="200" viewBox="0 0 200 200" fill="none" xmlns="http://www.w3.org/2000/svg">
<g clip-path="url(#clip0_132_305)">
<path fill-rule="evenodd" clip-rule="evenodd" d="M116.218 67.4779L125.517 70.7384L122.178 67.0216L116.218 67.4779Z" fill="#F1212E"/>
<path fill-rule="evenodd" clip-rule="evenodd" d="M98.5327 115.37L144.586 100.611L126.214 90.8942L98.5327 115.37Z" fill="#973A40"/>
<path fill-rule="evenodd" clip-rule="evenodd" d="M54.5154 96.7714L98.463 115.825L144.851 100.286L146.459 102.97L145.567 141.227L143.383 143.948L96.7092 161.063L51.9369 138.975L51.2334 133.954L52.8131 98.9052L54.5154 96.7714Z" fill="#F1212E"/>
<path fill-rule="evenodd" clip-rule="evenodd" d="M65.8866 90.0132L61.8746 90.5541L58.7452 89.6548L59.6328 86.4905L70.9059 78.0946L76.2986 77.6549L76.8246 80.4939L65.8866 90.0132Z" fill="#F1212E"/>
<path fill-rule="evenodd" clip-rule="evenodd" d="M90.281 71.121L86.269 71.6619L83.1396 70.7625L84.0272 67.5983L95.3004 59.2024L100.693 58.7627L101.219 61.6017L90.281 71.121Z" fill="#F1212E"/>
<path fill-rule="evenodd" clip-rule="evenodd" d="M54.5141 96.8692L97.6055 115.561L142.925 77.2931L101.838 59.4774L54.5141 96.8692Z" fill="#F1212E"/>
<path fill-rule="evenodd" clip-rule="evenodd" d="M125.77 106.963L132.178 104.884L138.543 81.5973L131.476 86.9584L125.77 106.963Z" fill="black" stroke="black" stroke-width="0.829639" stroke-miterlimit="1.5" stroke-linecap="round" stroke-linejoin="round"/>
<path d="M125.866 106.518L131.847 86.4422" stroke="black" stroke-width="2.05952"/>
<path fill-rule="evenodd" clip-rule="evenodd" d="M135.704 73.4952L140.92 55.9869C141.243 54.9036 142.384 54.2862 143.468 54.609L144.481 54.9108C145.564 55.2335 146.182 56.3749 145.859 57.4582L140.551 75.2725" fill="black"/>
<path d="M135.704 73.4952L140.92 55.9869C141.243 54.9036 142.384 54.2862 143.468 54.609L144.481 54.9108C145.564 55.2335 146.182 56.3749 145.859 57.4582L140.551 75.2725" stroke="black" stroke-width="2.05952"/>
<path d="M138.873 80.9048L131.617 105.262" stroke="black" stroke-width="2.05952"/>
<path d="M144.862 55.0244L143.086 54.4952C142.213 54.2351 141.294 54.7321 141.034 55.6052L138.853 62.9267L143.791 64.3981L145.972 57.0766C146.233 56.2033 145.736 55.2845 144.862 55.0244Z" fill="white" stroke="black" stroke-width="2.05952"/>
<path d="M148.244 41.5042L149.639 39.7507C149.826 39.5153 150.205 39.6696 150.174 39.9689L149.946 42.198C149.866 42.9884 150.129 43.7753 150.668 44.3584L151.817 45.5996C151.991 45.7873 151.866 46.0922 151.611 46.1051L149.922 46.1901C149.128 46.23 148.39 46.6091 147.896 47.2309L146.501 48.9845C146.314 49.2199 145.935 49.0656 145.965 48.7664L146.193 46.5373C146.274 45.7469 146.011 44.9599 145.472 44.3768L144.323 43.1355C144.149 42.9479 144.273 42.6429 144.529 42.63L146.218 42.5451C147.011 42.5052 147.749 42.1261 148.244 41.5042Z" fill="white" stroke="black" stroke-width="0.824804"/>
<path d="M156.177 37.7171L157.045 36.5234C157.199 36.3114 157.533 36.4478 157.495 36.7069L157.281 38.1671C157.209 38.6598 157.345 39.1602 157.657 39.5486L158.219 40.2487C158.342 40.4021 158.249 40.6308 158.054 40.6545L157.162 40.7624C156.668 40.8223 156.221 41.0853 155.928 41.488L155.061 42.6819C154.907 42.8937 154.572 42.7575 154.61 42.4984L154.824 41.0382C154.896 40.5455 154.76 40.0449 154.449 39.6567L153.886 38.9564C153.763 38.8032 153.857 38.5743 154.052 38.5508L154.943 38.4427C155.437 38.3828 155.884 38.1201 156.177 37.7171Z" fill="white" stroke="black" stroke-width="0.829783"/>
<path d="M146.294 33.0078L147.162 31.8139C147.316 31.6021 147.65 31.7385 147.612 31.9976L147.399 33.4577C147.326 33.9503 147.462 34.4509 147.774 34.8392L148.336 35.5394C148.459 35.6926 148.366 35.9215 148.171 35.945L147.279 36.0531C146.785 36.113 146.338 36.3758 146.045 36.7787L145.178 37.9726C145.024 38.1844 144.689 38.048 144.727 37.7888L144.941 36.3287C145.013 35.836 144.877 35.3356 144.565 34.9472L144.003 34.2471C143.88 34.0938 143.974 33.865 144.169 33.8413L145.06 33.7334C145.554 33.6735 146.002 33.4105 146.294 33.0078Z" fill="white" stroke="black" stroke-width="0.829783"/>
<path d="M126.927 91.8457C127.807 92.2375 128.767 92.6654 129.817 93.1332" stroke="black" stroke-width="2.07441" stroke-miterlimit="1.5" stroke-linecap="round" stroke-linejoin="round"/>
<path d="M135.015 95.449C135.213 95.5374 135.413 95.6266 135.616 95.7168L143.16 99.0773C144.878 99.843 145.968 101.567 145.923 103.447L145.039 140.375C144.993 142.273 143.8 143.955 142.024 144.625L98.802 160.93C97.602 161.383 96.2688 161.321 95.1158 160.76L53.6599 140.576C51.9843 139.76 50.9556 138.025 51.0441 136.164L52.7964 99.3129C52.8874 97.4008 54.1378 95.7388 55.9498 95.1215" stroke="black" stroke-width="2.07441" stroke-miterlimit="1.5" stroke-linecap="round" stroke-linejoin="round"/>
<path d="M54.7204 96.6228L98.5933 115.723M98.5933 115.723L96.9018 159.915C96.8699 160.749 97.6995 161.345 98.4798 161.049L141.784 144.618C143.557 143.945 144.745 142.265 144.79 140.37L145.68 102.893C145.709 101.688 144.539 100.816 143.393 101.188L98.5933 115.723Z" stroke="black" stroke-width="2.07441" stroke-miterlimit="1.5" stroke-linecap="round" stroke-linejoin="round"/>
<path d="M54.72 96.0006L59.4006 92.2413" stroke="black" stroke-width="2.44815" stroke-miterlimit="1.5" stroke-linecap="round" stroke-linejoin="round"/>
<path d="M76.9471 78.1478L83.9243 72.5426" stroke="black" stroke-width="2.47199" stroke-miterlimit="1.5" stroke-linecap="round" stroke-linejoin="round"/>
<path d="M102.104 60.2217L118.197 66.5809" stroke="black" stroke-width="2.47199" stroke-miterlimit="1.5" stroke-linecap="round" stroke-linejoin="round"/>
<path d="M123.386 68.7151L135.13 73.3954" stroke="black" stroke-width="2.47199" stroke-miterlimit="1.5" stroke-linecap="round" stroke-linejoin="round"/>
<path d="M130.07 71.3786C130.07 71.3786 137.702 74.4212 141.435 75.9105C141.859 76.0795 142.164 76.4585 142.238 76.9096C142.315 77.3587 142.148 77.816 141.8 78.1147C133.714 85.0384 98.4821 115.209 98.4821 115.209" stroke="black" stroke-width="2.47199" stroke-miterlimit="1.5" stroke-linecap="round" stroke-linejoin="round"/>
<path d="M59.2199 90.4859C59.2199 90.4859 61.9748 94.2671 63.5254 96.3953C64.1513 97.2541 65.2258 97.6619 66.2636 97.4345C66.3565 97.4143 66.4521 97.3933 66.55 97.3718C72.1301 96.1502 76.9975 92.7647 80.0848 87.9584L80.0851 87.9581C81.1512 86.2982 81.0881 84.1542 79.9264 82.5598C78.3984 80.4627 76.5181 77.8819 76.5181 77.8819" stroke="black" stroke-width="2.07441" stroke-miterlimit="1.5" stroke-linecap="round" stroke-linejoin="round"/>
<path d="M70.1236 87.2782C74.9004 83.7976 77.7634 79.591 76.5184 77.8823C75.2735 76.1735 70.392 77.61 65.615 81.0904C60.8383 84.571 57.9751 88.7777 59.2202 90.4863C60.4652 92.195 65.3468 90.7587 70.1236 87.2782Z" stroke="black" stroke-width="2.07441" stroke-miterlimit="1.5" stroke-linecap="round" stroke-linejoin="round"/>
<path d="M83.0959 70.3734L86.715 76.7263C87.2411 77.6496 88.2631 78.1745 89.32 78.0647C89.4144 78.0547 89.5117 78.0448 89.6116 78.0343C95.293 77.4432 100.508 74.6224 104.113 70.1905L104.113 70.1901C105.357 68.6597 105.534 66.5221 104.558 64.808C103.273 62.5533 101.693 59.7792 101.693 59.7792" stroke="black" stroke-width="2.07441" stroke-miterlimit="1.5" stroke-linecap="round" stroke-linejoin="round"/>
<path d="M94.2893 68.4028C99.4246 65.4773 102.739 61.6165 101.693 59.7795C100.646 57.9426 95.635 58.825 90.4997 61.7504C85.3642 64.676 82.0494 68.5368 83.0959 70.3737C84.1424 72.2107 89.1539 71.3283 94.2893 68.4028Z" stroke="black" stroke-width="2.07441" stroke-miterlimit="1.5" stroke-linecap="round" stroke-linejoin="round"/>
<path d="M80.5229 98.2525C80.5229 98.2525 83.2779 102.034 84.8285 104.162C85.4543 105.021 86.5288 105.428 87.5666 105.201C87.6595 105.181 87.7552 105.16 87.8531 105.138C93.4331 103.917 98.3005 100.531 101.388 95.7249L101.388 95.7247C102.454 94.0647 102.391 91.9208 101.229 90.3264C99.7014 88.2292 97.8211 85.6485 97.8211 85.6485" stroke="black" stroke-width="2.07441" stroke-miterlimit="1.5" stroke-linecap="round" stroke-linejoin="round"/>
<path d="M91.4267 95.0448C96.2034 91.5642 99.0664 87.3577 97.8215 85.6489C96.5765 83.9402 91.695 85.3767 86.9181 88.8571C82.1413 92.3376 79.2782 96.5443 80.5233 98.253C81.7682 99.9617 86.6499 98.5254 91.4267 95.0448Z" stroke="black" stroke-width="2.07441" stroke-miterlimit="1.5" stroke-linecap="round" stroke-linejoin="round"/>
<path d="M104.399 78.1399L108.019 84.4929C108.545 85.4162 109.567 85.9411 110.624 85.8313C110.718 85.8213 110.815 85.8113 110.915 85.8008C116.597 85.2098 121.812 82.3889 125.416 77.9571L125.416 77.9567C126.661 76.4263 126.838 74.2887 125.861 72.5746C124.577 70.3198 122.997 67.5457 122.997 67.5457" stroke="black" stroke-width="2.07441" stroke-miterlimit="1.5" stroke-linecap="round" stroke-linejoin="round"/>
<path d="M115.593 76.1693C120.728 73.2439 124.043 69.3831 122.997 67.5461C121.95 65.7091 116.939 66.5915 111.803 69.517C106.668 72.4425 103.353 76.3033 104.4 78.1403C105.446 79.9773 110.458 79.0949 115.593 76.1693Z" stroke="black" stroke-width="2.07441" stroke-miterlimit="1.5" stroke-linecap="round" stroke-linejoin="round"/>
</g>
<defs>
<clipPath id="clip0_132_305">
<rect width="110" height="132.281" fill="white" transform="translate(50 30)"/>
</clipPath>
</defs>
</svg>
