<svg width="862" height="203" viewBox="0 0 862 203" fill="none" xmlns="http://www.w3.org/2000/svg">
<g clip-path="url(#clip0_124_248)">
<path fill-rule="evenodd" clip-rule="evenodd" d="M101.62 57.5142L115.89 62.5178L110.766 56.8139L101.62 57.5142Z" fill="#F1212E"/>
<path fill-rule="evenodd" clip-rule="evenodd" d="M74.4792 131.01L145.153 108.361L116.96 93.4491L74.4792 131.01Z" fill="#973A40"/>
<path fill-rule="evenodd" clip-rule="evenodd" d="M6.92977 102.468L74.3724 131.708L145.561 107.862L148.028 111.981L146.658 170.69L143.307 174.866L71.6809 201.132L2.97273 167.235L1.89314 159.529L4.31727 105.743L6.92977 102.468Z" fill="#F1212E"/>
<path fill-rule="evenodd" clip-rule="evenodd" d="M24.3798 92.097L18.2229 92.9271L13.4205 91.547L14.7827 86.6911L32.0826 73.8065L40.3582 73.1318L41.1655 77.4886L24.3798 92.097Z" fill="#F1212E"/>
<path fill-rule="evenodd" clip-rule="evenodd" d="M61.8163 63.1047L55.6593 63.9348L50.8569 62.5547L52.2191 57.6988L69.519 44.8143L77.7946 44.1395L78.6019 48.4963L61.8163 63.1047Z" fill="#F1212E"/>
<path fill-rule="evenodd" clip-rule="evenodd" d="M6.92743 102.618L73.0561 131.303L142.605 72.5766L79.5519 45.2365L6.92743 102.618Z" fill="#F1212E"/>
<path fill-rule="evenodd" clip-rule="evenodd" d="M116.278 118.108L126.112 114.917L135.88 79.1819L125.035 87.4091L116.278 118.108Z" fill="black" stroke="black" stroke-width="1.27318" stroke-miterlimit="1.5" stroke-linecap="round" stroke-linejoin="round"/>
<path d="M116.425 117.425L125.603 86.6169" stroke="black" stroke-width="3.16057"/>
<path fill-rule="evenodd" clip-rule="evenodd" d="M131.523 66.7482L139.527 39.8797C140.023 38.2173 141.774 37.2698 143.437 37.7651L144.991 38.2283C146.654 38.7235 147.601 40.4751 147.106 42.1375L138.961 69.4757" fill="black"/>
<path d="M131.523 66.7482L139.527 39.8797C140.023 38.2173 141.774 37.2698 143.437 37.7651L144.991 38.2283C146.654 38.7235 147.601 40.4751 147.106 42.1375L138.961 69.4757" stroke="black" stroke-width="3.16057"/>
<path d="M136.386 78.1192L125.25 115.498" stroke="black" stroke-width="3.16057"/>
<path d="M145.577 38.4029L142.851 37.5908C141.511 37.1915 140.101 37.9542 139.702 39.2942L136.354 50.5299L143.933 52.7879L147.28 41.5522C147.68 40.212 146.917 38.802 145.577 38.4029Z" fill="white" stroke="black" stroke-width="3.16057"/>
<path d="M150.766 17.6544L152.907 14.9635C153.194 14.6022 153.776 14.8391 153.729 15.2983L153.379 18.7191C153.255 19.932 153.658 21.1397 154.487 22.0345L156.25 23.9392C156.516 24.2274 156.325 24.6952 155.933 24.7149L153.341 24.8455C152.124 24.9067 150.991 25.4885 150.232 26.4426L148.091 29.1338C147.804 29.4951 147.223 29.2582 147.27 28.799L147.619 25.3782C147.743 24.1653 147.34 22.9576 146.512 22.0628L144.749 20.1578C144.482 19.8699 144.673 19.4019 145.065 19.3821L147.657 19.2518C148.875 19.1906 150.007 18.6088 150.766 17.6544Z" fill="white" stroke="black" stroke-width="1.26576"/>
<path d="M162.941 11.8427L164.272 10.0108C164.508 9.68544 165.022 9.89479 164.964 10.2925L164.635 12.5332C164.525 13.2893 164.734 14.0573 165.212 14.6532L166.074 15.7277C166.263 15.9631 166.12 16.314 165.821 16.3504L164.453 16.516C163.694 16.608 163.008 17.0115 162.559 17.6295L161.228 19.4617C160.992 19.7868 160.478 19.5777 160.536 19.1801L160.864 16.9393C160.975 16.1832 160.766 15.415 160.288 14.8192L159.425 13.7445C159.236 13.5094 159.38 13.1582 159.679 13.1221L161.047 12.9562C161.806 12.8642 162.492 12.461 162.941 11.8427Z" fill="white" stroke="black" stroke-width="1.2734"/>
<path d="M147.774 4.61564L149.105 2.78347C149.342 2.4584 149.855 2.66777 149.797 3.06534L149.469 5.30614C149.358 6.06204 149.567 6.83023 150.045 7.42618L150.908 8.50065C151.097 8.73574 150.953 9.087 150.654 9.12312L149.286 9.28898C148.528 9.38094 147.841 9.78422 147.392 10.4025L146.061 12.2347C145.825 12.5597 145.311 12.3504 145.37 11.9527L145.698 9.71193C145.808 8.95588 145.6 8.18791 145.121 7.59196L144.259 6.5175C144.07 6.28233 144.213 5.93115 144.512 5.89479L145.88 5.72917C146.639 5.63722 147.325 5.23368 147.774 4.61564Z" fill="white" stroke="black" stroke-width="1.2734"/>
<path d="M118.054 94.9092C119.403 95.5105 120.877 96.1671 122.488 96.885" stroke="black" stroke-width="3.18342" stroke-miterlimit="1.5" stroke-linecap="round" stroke-linejoin="round"/>
<path d="M130.465 100.439C130.769 100.575 131.077 100.711 131.387 100.85L142.964 106.007C145.602 107.182 147.275 109.827 147.206 112.713L145.848 169.383C145.778 172.296 143.948 174.877 141.221 175.905L74.8926 200.927C73.0511 201.622 71.0051 201.527 69.2357 200.666L5.61691 169.692C3.04552 168.44 1.46677 165.777 1.6027 162.92L4.29169 106.369C4.43142 103.434 6.35033 100.884 9.13101 99.9363" stroke="black" stroke-width="3.18342" stroke-miterlimit="1.5" stroke-linecap="round" stroke-linejoin="round"/>
<path d="M7.24419 102.24L74.5722 131.552M74.5722 131.552L71.9764 199.369C71.9274 200.649 73.2005 201.564 74.398 201.11L140.853 175.894C143.573 174.862 145.398 172.284 145.467 169.375L146.832 111.862C146.876 110.014 145.081 108.676 143.322 109.246L74.5722 131.552Z" stroke="black" stroke-width="3.18342" stroke-miterlimit="1.5" stroke-linecap="round" stroke-linejoin="round"/>
<path d="M7.24318 101.285L14.426 95.5162" stroke="black" stroke-width="3.75697" stroke-miterlimit="1.5" stroke-linecap="round" stroke-linejoin="round"/>
<path d="M41.3534 73.8882L52.0607 65.2863" stroke="black" stroke-width="3.79355" stroke-miterlimit="1.5" stroke-linecap="round" stroke-linejoin="round"/>
<path d="M79.9592 46.3786L104.655 56.1376" stroke="black" stroke-width="3.79355" stroke-miterlimit="1.5" stroke-linecap="round" stroke-linejoin="round"/>
<path d="M112.618 59.4126L130.641 66.5951" stroke="black" stroke-width="3.79355" stroke-miterlimit="1.5" stroke-linecap="round" stroke-linejoin="round"/>
<path d="M122.877 63.5001C122.877 63.5001 134.589 68.1694 140.318 70.455C140.969 70.7142 141.437 71.2959 141.551 71.9882C141.668 72.6774 141.411 73.3792 140.877 73.8375C128.469 84.4626 74.4016 130.763 74.4016 130.763" stroke="black" stroke-width="3.79355" stroke-miterlimit="1.5" stroke-linecap="round" stroke-linejoin="round"/>
<path d="M14.1488 92.8225C14.1488 92.8225 18.3766 98.6252 20.7561 101.891C21.7166 103.209 23.3655 103.835 24.9581 103.486C25.1007 103.455 25.2475 103.423 25.3978 103.39C33.961 101.515 41.4305 96.3196 46.1684 88.9437L46.1689 88.9433C47.805 86.3959 47.7081 83.1057 45.9253 80.659C43.5804 77.4407 40.6949 73.4802 40.6949 73.4802" stroke="black" stroke-width="3.18342" stroke-miterlimit="1.5" stroke-linecap="round" stroke-linejoin="round"/>
<path d="M30.8816 87.8999C38.2122 82.5586 42.6057 76.1031 40.6952 73.4808C38.7847 70.8586 31.2934 73.0631 23.9627 78.4041C16.6322 83.7454 12.2383 90.2011 14.1491 92.8232C16.0596 95.4454 23.5511 93.2412 30.8816 87.8999Z" stroke="black" stroke-width="3.18342" stroke-miterlimit="1.5" stroke-linecap="round" stroke-linejoin="round"/>
<path d="M50.7891 61.9574L56.3431 71.7068C57.1504 73.1237 58.7189 73.9292 60.3408 73.7607C60.4856 73.7454 60.635 73.7301 60.7883 73.714C69.507 72.807 77.5103 68.478 83.0417 61.6769L83.0421 61.6763C84.9521 59.3276 85.2235 56.0473 83.725 53.4168C81.7538 49.9566 79.3286 45.6994 79.3286 45.6994" stroke="black" stroke-width="3.18342" stroke-miterlimit="1.5" stroke-linecap="round" stroke-linejoin="round"/>
<path d="M67.9669 58.9334C75.8476 54.4439 80.9346 48.5191 79.3288 45.7C77.7227 42.881 70.0319 44.2351 62.1512 48.7246C54.2702 53.2142 49.1832 59.139 50.7893 61.958C52.3952 64.7771 60.0859 63.423 67.9669 58.9334Z" stroke="black" stroke-width="3.18342" stroke-miterlimit="1.5" stroke-linecap="round" stroke-linejoin="round"/>
<path d="M46.8414 104.741C46.8414 104.741 51.0692 110.544 53.4487 113.81C54.4092 115.128 56.0581 115.754 57.6507 115.405C57.7933 115.374 57.9401 115.341 58.0904 115.308C66.6536 113.434 74.1231 108.238 78.861 100.862L78.8615 100.862C80.4976 98.3146 80.4007 95.0244 78.6179 92.5776C76.273 89.3594 73.3875 85.3989 73.3875 85.3989" stroke="black" stroke-width="3.18342" stroke-miterlimit="1.5" stroke-linecap="round" stroke-linejoin="round"/>
<path d="M63.5742 99.8186C70.9048 94.4772 75.2983 88.0218 73.3878 85.3995C71.4773 82.7772 63.986 84.9817 56.6553 90.3228C49.3248 95.6641 44.9309 102.12 46.8417 104.742C48.7522 107.364 56.2437 105.16 63.5742 99.8186Z" stroke="black" stroke-width="3.18342" stroke-miterlimit="1.5" stroke-linecap="round" stroke-linejoin="round"/>
<path d="M83.4823 73.8761L89.0363 83.6254C89.8436 85.0423 91.412 85.8478 93.034 85.6794C93.1788 85.664 93.3281 85.6488 93.4814 85.6326C102.2 84.7256 110.203 80.3967 115.735 73.5955L115.735 73.5949C117.645 71.2463 117.917 67.9659 116.418 65.3354C114.447 61.8752 112.022 57.6181 112.022 57.6181" stroke="black" stroke-width="3.18342" stroke-miterlimit="1.5" stroke-linecap="round" stroke-linejoin="round"/>
<path d="M100.66 70.852C108.541 66.3626 113.628 60.4378 112.022 57.6186C110.416 54.7997 102.725 56.1538 94.8447 60.6433C86.9637 65.1329 81.8767 71.0577 83.4828 73.8767C85.0886 76.6958 92.7793 75.3417 100.66 70.852Z" stroke="black" stroke-width="3.18342" stroke-miterlimit="1.5" stroke-linecap="round" stroke-linejoin="round"/>
</g>
<g clip-path="url(#clip1_124_248)">
<path fill-rule="evenodd" clip-rule="evenodd" d="M662.077 125.088C660.714 125.829 659.053 125.748 657.771 124.875C656.493 124.003 655.808 122.487 656 120.948C656.185 119.316 656.329 117.468 656.411 115.416C656.816 105.581 655.211 61.8349 637.025 65.461C610.314 70.7903 639.032 87.8156 627.445 138.245C625.576 146.348 628.095 154.838 634.079 160.61C640.066 166.382 648.64 168.592 656.669 166.433C673.247 161.986 689.759 150.061 691.92 126.601C693.433 110.19 673.432 118.899 662.077 125.088Z" fill="white"/>
<path fill-rule="evenodd" clip-rule="evenodd" d="M661.219 123.518C660.833 123.725 660.403 123.809 659.982 123.783C659.564 123.76 659.156 123.615 658.798 123.369C658.446 123.123 658.179 122.784 658.012 122.403C657.846 122.025 657.786 121.604 657.843 121.178C657.846 121.171 657.846 121.165 657.846 121.158L658.314 115.493C658.638 108.819 658.116 86.8848 652.324 73.9025C648.954 66.3465 643.762 61.796 636.569 63.1792C626.634 65.0989 623.449 68.8317 622.89 74.3097C622.539 77.7549 623.44 82.1663 624.627 87.7703C626.945 98.7263 630.228 114.64 624.866 137.651C623.833 142.156 624.015 146.764 625.293 151.05C626.572 155.332 628.94 159.288 632.269 162.487C635.602 165.674 639.644 167.875 643.969 168.97C648.285 170.063 652.88 170.059 657.318 168.844C666.562 166.304 675.775 161.527 682.675 153.894C688.734 147.194 693.044 138.307 694.02 126.795C694.614 119.72 691.787 116.53 687.603 115.512C685.153 114.918 682.072 115.15 678.749 115.988C672.907 117.458 666.232 120.729 661.219 123.518ZM662.931 126.659C668.886 123.479 677.267 119.562 683.47 119.187C685.713 119.051 687.638 119.342 688.784 120.7C689.777 121.873 690.091 123.731 689.821 126.407C688.784 136.797 684.811 144.78 679.255 150.756C672.888 157.607 664.451 161.815 656.021 164.019C656.021 164.022 656.021 164.022 656.018 164.022C652.428 164.969 648.722 164.934 645.244 164.022C641.777 163.111 638.545 161.317 635.891 158.732C633.234 156.159 631.352 152.982 630.341 149.553C629.329 146.124 629.188 142.44 630.023 138.84C630.023 138.84 630.023 138.84 630.023 138.837C635.479 114.759 632.012 98.1478 629.493 86.72C628.393 81.743 627.432 77.8421 627.712 74.7751C628.051 71.0326 630.718 69.1355 637.48 67.7458C640.844 67.051 643.467 68.5118 645.555 71.1296C647.55 73.631 649.086 77.0956 650.298 80.977C654.159 93.3226 654.699 109.802 654.51 115.335L654.152 120.738C654.023 121.831 654.203 122.936 654.655 123.918C655.107 124.898 655.817 125.761 656.744 126.381C657.673 127.002 658.732 127.347 659.806 127.389C660.874 127.435 661.961 127.199 662.931 126.659Z" fill="white"/>
<path fill-rule="evenodd" clip-rule="evenodd" d="M459.236 67.7056C459.048 67.7056 458.855 67.6957 458.662 67.6808C455.548 67.4383 431.46 66.2109 430.332 85.1914C429.169 104.637 451.322 114.551 440.468 145.949C439.82 147.834 439.018 149.661 438.072 151.413C436.122 155.1 432.361 165.914 453.856 169.413C479.909 173.66 524.348 156.877 492.094 119.134C492.094 119.134 488.342 116.189 494.445 110.73C516.043 91.4176 479.652 67.7007 459.236 67.7056ZM482.225 137.401C482.24 137.406 482.25 137.421 482.255 137.441C482.255 137.461 482.25 137.476 482.235 137.485C482.245 138.173 483.146 143.192 476.296 144.835C464.68 147.622 455.212 147.879 458.736 137.911C462.185 128.136 481.468 137.045 482.225 137.401ZM457.498 86.8643C457.459 86.8643 457.419 86.8643 457.38 86.8643C456.538 86.8395 451.46 87.0325 458.919 95.1345C467.016 103.929 476.682 106.899 477.756 96.3767C478.825 85.9338 457.795 86.8494 457.498 86.8643Z" fill="white"/>
<path fill-rule="evenodd" clip-rule="evenodd" d="M459.236 65.9189L458.8 65.8941C456.568 65.706 444.165 65.0428 435.969 70.8285C431.841 73.7436 428.718 78.2178 428.258 85.0676C427.783 92.2391 430.258 98.2178 433.262 104.355C435.825 109.591 438.78 114.951 440.22 121.465C441.646 127.879 441.552 135.431 438.132 145.142C438.132 145.147 438.132 145.147 438.132 145.147C437.825 146.023 437.483 146.884 437.107 147.735C436.731 148.582 436.32 149.413 435.875 150.225C435.87 150.23 435.865 150.24 435.865 150.245C434.42 152.947 432.356 158.728 436.241 163.939C438.656 167.176 443.635 170.358 453.44 171.992C463.531 173.645 476.276 172.299 486.585 167.899C494.39 164.573 500.79 159.485 503.883 152.833C507.981 144.018 506.521 132.175 493.915 117.574C493.816 117.451 493.697 117.342 493.574 117.248C493.574 117.248 493.084 116.644 493.564 115.53C493.94 114.654 494.702 113.645 496.004 112.472C500.893 108.032 503.046 103.38 503.279 98.8316C503.536 93.8526 501.478 88.933 497.85 84.4836C489.164 73.8179 471.431 65.8149 459.236 65.9189ZM459.236 69.4922C470.47 69.5813 486.679 77.2032 494.524 87.1463C497.35 90.7295 499.072 94.6148 498.81 98.5692C498.582 102.093 496.731 105.602 492.891 108.987C490.228 111.333 489.159 113.377 488.768 114.956C487.951 118.252 489.738 120.237 490.391 120.831C504.259 137.292 502.839 149.255 494.415 156.936C484.828 165.681 467.174 168.938 454.276 166.84C446.432 165.587 442.269 163.444 440.319 160.871C437.944 157.738 439.423 154.224 440.28 152.581C440.77 151.66 441.235 150.705 441.656 149.73C442.076 148.755 442.462 147.76 442.804 146.75C446.476 135.926 446.432 127.532 444.764 120.43C443.155 113.551 439.993 107.899 437.201 102.39C434.455 96.9657 432.059 91.7046 432.4 85.3151C432.683 79.9253 435.048 76.3569 438.255 74.0208C445.467 68.7647 456.538 69.3289 458.528 69.4675C458.498 69.4625 459.24 69.4922 459.24 69.4922H459.236ZM484.041 137.594C484.051 137.461 484.051 137.327 484.026 137.193C483.972 136.892 483.873 136.599 483.69 136.362C483.507 136.129 483.284 135.916 483.002 135.793C482.997 135.788 482.992 135.783 482.982 135.778C482.606 135.585 477.721 133.081 472.336 131.759C469.619 131.091 466.783 130.759 464.294 131.056C460.596 131.502 457.657 133.333 456.261 137.04C455.029 140.514 455.177 143.078 456.058 144.885C456.934 146.676 458.528 147.943 460.804 148.547C464.467 149.522 470.342 148.681 476.8 146.948C479.577 146.176 481.289 144.988 482.339 143.712C484.398 141.207 484.106 138.411 484.041 137.594ZM480.443 138.614C480.379 139.327 480.136 140.252 479.359 141.069C478.661 141.801 477.518 142.37 475.786 142.722C470.258 143.89 465.293 144.528 462.23 143.593C460.443 143.048 460.225 141.529 461.205 138.782C462.032 136.268 464.511 135.743 467.179 135.733C472.208 135.714 478.092 137.728 480.443 138.614ZM480.804 136.411C480.869 136.317 480.948 136.228 481.042 136.154C480.953 136.233 480.874 136.317 480.804 136.411ZM457.439 85.0775L457.464 85.0725C457.454 85.0725 457.444 85.0725 457.429 85.0725C456.993 85.0428 455.83 85.0874 454.87 85.5625C453.875 86.0475 453.103 86.9582 452.994 88.4876C452.895 89.903 453.717 92.437 457.305 96.6241C459.681 99.366 462.22 101.598 464.665 103.142C467.07 104.667 469.431 105.513 471.49 105.662C475.984 105.983 479.641 103.509 480.354 96.644C480.666 92.6845 478.85 89.8832 475.826 88.0322C473.752 86.7652 471.094 85.9436 468.397 85.4982C463.19 84.637 457.929 85.0329 457.449 85.0725L457.439 85.0775ZM456.845 88.6707C457.028 88.6509 457.271 88.6558 457.33 88.6558C457.3 88.6558 457.568 88.6509 457.568 88.6509C457.573 88.6509 457.573 88.6509 457.578 88.6509C457.756 88.6509 465.867 88.631 471.376 91.1106C473.628 92.1203 475.484 93.5606 475.157 96.1144C474.855 99.1038 473.767 100.574 471.807 100.48C468.58 100.326 464.427 97.6635 460.537 93.6496C458.637 91.7243 457.563 90.3485 457.078 89.3042C456.974 89.0815 456.885 88.7944 456.845 88.6707ZM456.8 88.6756C456.771 88.7449 456.721 88.839 456.682 88.8093C456.598 88.735 456.677 88.6954 456.8 88.6756Z" fill="white"/>
<path fill-rule="evenodd" clip-rule="evenodd" d="M382.178 70.8327C382.205 70.8089 382.232 70.7818 382.26 70.7546C383.438 69.5936 402.764 51.6734 425.035 103.52C429.461 113.684 431.273 124.795 430.302 135.838C428.998 151.022 423.275 169.534 403.298 170.549C399.951 170.735 396.659 169.669 394.057 167.561C391.075 165.104 388.684 160.945 391.994 154.305C398.256 141.731 402.032 125.202 393.37 110.588C381.333 90.2809 378.198 74.3258 382.178 70.8327Z" fill="white"/>
<path fill-rule="evenodd" clip-rule="evenodd" d="M380.979 69.5054C379.934 70.4186 379.175 71.936 378.865 74.0441C378.517 76.4204 378.729 79.676 379.6 83.6342C381.207 90.909 385.072 100.676 391.476 111.712C395.365 118.396 396.482 125.484 395.95 132.348C395.375 139.796 392.855 146.986 389.723 153.175C388.051 156.498 387.636 159.319 387.905 161.678C388.3 165.161 390.203 167.745 392.399 169.571C392.406 169.578 392.409 169.581 392.416 169.585C393.965 170.847 395.722 171.798 397.592 172.409C399.461 173.02 401.446 173.285 403.444 173.176C411.919 172.745 418.075 169.432 422.515 164.588C429.321 157.153 432.008 145.951 432.822 136.055C433.292 130.328 433.046 124.584 432.093 118.956C431.143 113.341 429.492 107.842 427.163 102.594C419.652 85.4877 412.467 75.8569 406.199 70.6698C391.953 58.8766 381.881 68.5991 381.003 69.4783C380.993 69.4885 380.983 69.4986 380.972 69.5088L380.979 69.5054ZM383.356 72.1771L383.546 71.9972C384.231 71.3352 392.379 64.135 403.601 73.7522C409.464 78.7764 416.036 88.0812 422.903 104.437C422.903 104.44 422.907 104.444 422.907 104.447C425.007 109.363 426.472 114.502 427.292 119.74C428.109 124.971 428.283 130.305 427.786 135.617C427.786 135.621 427.786 135.621 427.786 135.621C427.122 142.98 425.396 151.168 421.313 157.533C417.622 163.287 411.923 167.477 403.162 167.921C403.158 167.921 403.155 167.921 403.152 167.921C401.803 167.999 400.469 167.826 399.205 167.422C397.946 167.018 396.754 166.387 395.705 165.542C394.432 164.496 393.257 163.07 393.008 161.074C392.818 159.509 393.172 157.652 394.262 155.435C397.581 148.66 400.203 140.791 400.71 132.681C401.197 124.921 399.774 116.943 395.259 109.468C390.07 100.893 386.519 93.1054 384.473 86.7471C383.008 82.2016 382.307 78.4199 382.389 75.6431C382.436 74.0204 382.658 72.8017 383.356 72.1771Z" fill="white"/>
<path fill-rule="evenodd" clip-rule="evenodd" d="M584.739 69.5173C584.784 69.4893 584.83 69.4581 584.87 69.4257C586.63 68.1641 606.255 55.5406 616.643 108.37C618.556 117.881 618.41 127.696 616.211 137.147C612.794 151.767 604.779 170.439 586.286 168.037C583.396 167.67 580.751 166.235 578.869 164.013C576.482 161.197 574.74 156.681 578.978 150.627C586.605 139.73 592.739 124.646 587.676 109.265C580.625 87.8499 580.641 72.1119 584.739 69.5173Z" fill="white"/>
<path fill-rule="evenodd" clip-rule="evenodd" d="M583.78 68.0062C582.68 68.6944 581.71 70.0298 581.061 72.0398C580.356 74.2261 579.979 77.3288 580.056 81.2023C580.195 88.3945 581.886 98.3534 585.579 109.956C587.823 116.967 587.582 123.891 585.948 130.326C584.165 137.348 580.715 143.794 576.895 149.171C574.776 152.164 573.946 154.871 573.835 157.23C573.667 160.758 575.113 163.605 576.875 165.703C578.024 167.064 579.411 168.187 580.95 169.026C582.489 169.867 584.185 170.422 585.954 170.65C594.23 171.722 600.648 169.035 605.595 164.359C612.585 157.751 616.535 146.976 618.658 137.721C618.659 137.717 618.659 137.717 618.659 137.717C619.768 132.811 620.351 127.816 620.393 122.816C620.433 117.825 619.942 112.828 618.916 107.91C615.4 90.8152 610.956 80.4465 606.513 74.2909C602.197 68.3037 597.8 66.0822 594.102 65.515C588.705 64.6868 584.635 67.3837 583.83 67.9691C583.816 67.9797 583.802 67.9903 583.787 68.0009L583.78 68.0062ZM585.696 71.0278L585.957 70.8478C586.513 70.4614 589.541 68.5409 593.495 69.2249C596.457 69.7389 599.844 71.7433 603.227 76.6159C607.341 82.5468 611.306 92.501 614.37 108.816C614.37 108.819 614.369 108.823 614.372 108.826C615.261 113.423 615.649 118.09 615.55 122.744C615.448 127.392 614.855 132.031 613.767 136.58C611.787 144.887 608.304 154.612 601.99 160.526C598.107 164.166 593.1 166.269 586.625 165.425C586.622 165.424 586.622 165.424 586.619 165.423C585.498 165.285 584.428 164.939 583.454 164.415C582.477 163.887 581.597 163.184 580.865 162.322C579.83 161.114 578.911 159.497 578.987 157.449C579.046 155.876 579.665 154.097 581.06 152.082C585.128 146.185 588.775 139.126 590.595 131.47C592.32 124.203 592.425 116.413 589.772 108.577C586.683 99.5027 584.905 91.4626 584.204 85.0502C583.707 80.4964 583.734 76.7905 584.278 74.1649C584.596 72.6221 584.972 71.495 585.696 71.0278Z" fill="white"/>
<path fill-rule="evenodd" clip-rule="evenodd" d="M350.485 125.983C350.485 125.983 345.788 123.905 344.402 136.367C343.012 148.829 337.612 170.433 325.244 165.187C312.875 159.945 309.282 130.22 311.267 93.1597C313.251 56.0995 348.579 63.4987 365.605 87.4433C385.234 115.05 386.328 165.855 367.401 168.74C349.931 171.403 351.767 157.243 352.925 151.239C355.761 136.59 352.499 125.211 350.485 125.983ZM342.531 86.9335C342.497 86.9038 342.462 86.8691 342.433 86.8394C341.74 86.1614 337.483 82.5583 337.448 94.7534C337.409 108.037 344.63 120.079 353.449 112.313C362.269 104.548 342.541 86.9384 342.531 86.9335Z" fill="white"/>
<path fill-rule="evenodd" clip-rule="evenodd" d="M350 127.706C350.05 127.968 350.53 128.369 350.713 128.854C351.594 131.239 352.242 135.451 352.123 140.707C352.054 143.791 351.713 147.226 350.98 150.863C350.193 154.783 349.337 161.816 352.534 166.399C354.875 169.755 359.34 172.115 367.729 170.893C371.856 170.289 375.232 167.8 377.771 163.845C381.512 158.025 383.428 148.819 383.368 138.302C383.274 121.123 377.969 100.44 367.738 85.9287C361.745 77.4852 353.588 71.0017 345.313 67.5669C338.389 64.6963 331.371 63.9639 325.392 65.7951C316.518 68.5122 309.569 76.827 308.753 93.026C307.709 114.437 308.506 133.422 311.708 146.75C314.296 157.545 318.617 164.731 324.412 167.146C329.753 169.374 334.044 167.646 337.389 163.677C342.655 157.436 345.383 145.013 346.269 136.575C346.551 133.877 346.986 131.908 347.516 130.477C348.644 127.428 349.758 127.616 349.758 127.616C349.837 127.656 349.921 127.681 350 127.706ZM350.663 124.147C349.693 123.885 347.585 123.731 345.585 126.374C344.398 127.943 343.165 130.834 342.537 136.159C341.76 142.727 339.839 151.922 336.296 158.084C333.836 162.36 330.594 165.177 326.075 163.227C323.259 162.014 321.067 159.262 319.26 155.392C317.221 151.012 315.766 145.241 314.781 138.416C313.004 126.142 312.786 110.517 313.786 93.2932C314.316 83.9589 317.013 77.6684 321.171 73.9861C324.59 70.9621 328.966 69.8089 333.658 70.091C343.967 70.7047 355.712 78.0495 363.472 88.9626C373.252 102.598 378.33 122.118 378.582 138.351C378.706 146.231 377.706 153.328 375.464 158.559C373.584 162.939 370.881 165.983 367.07 166.587C361.027 167.552 357.652 166.394 355.924 163.994C353.331 160.381 354.291 154.743 354.87 151.616C356.281 144.023 356.118 137.287 355.345 132.551C354.667 128.394 353.376 125.671 352.371 124.82C351.797 124.335 351.218 124.137 350.663 124.147ZM343.69 85.5674L343.705 85.5773C343.7 85.5724 343.69 85.5625 343.685 85.5575C342.987 84.83 340.141 82.776 337.785 85.023C336.667 86.0921 335.474 88.7498 335.281 94.7484C335.083 102.454 337.275 109.799 340.73 113.778C342.769 116.129 345.279 117.391 347.966 117.401C350.208 117.406 352.673 116.505 355.182 114.273C358.454 111.279 358.914 107.334 357.479 103.152C356.553 100.46 354.851 97.6635 352.891 95.1245C348.867 89.9129 343.903 85.7456 343.69 85.5724V85.5674ZM341.374 88.2945C341.379 88.2945 341.379 88.2994 341.384 88.2994C341.389 88.3044 348.624 95.2581 351.861 102.148C353.306 105.226 354.138 108.304 351.723 110.348C350.386 111.512 349.149 112.115 347.961 112.115C346.689 112.12 345.581 111.408 344.581 110.329C341.626 107.136 339.745 101.123 339.622 94.7582C339.552 92.1648 339.681 90.3484 339.983 89.0913C340.092 88.6112 340.206 88.2302 340.364 87.9431C340.423 87.8342 340.522 87.6758 340.522 87.6758C340.522 87.6758 340.389 87.7154 340.394 87.6758C340.473 87.3195 341.062 88.0124 341.181 88.1213C341.161 88.1015 341.374 88.2945 341.374 88.2945Z" fill="white"/>
<path fill-rule="evenodd" clip-rule="evenodd" d="M693.505 68.631C690.832 69.7644 688.753 71.9619 687.763 74.6889C686.773 77.4209 686.962 80.44 688.278 83.0235C695.44 96.733 714.361 113.234 695.182 151.215C693.757 154.09 693.663 157.446 694.925 160.391C696.187 163.34 698.681 165.587 701.745 166.538C714.965 170.611 736.103 173.788 752.035 160.326C777.014 139.218 764.551 89.215 739.939 72.9666C725.363 63.3452 704.893 63.8747 693.505 68.631ZM722.062 96.6637C721.809 95.9609 721.958 95.1789 722.448 94.6197C722.938 94.0554 723.69 93.803 724.418 93.9515C727.298 94.7334 731.465 97.3516 736.286 105.058C745.536 119.846 744.032 141.41 729.55 137.946C722.656 136.293 725.016 105.666 722.062 96.6637Z" fill="white"/>
<path fill-rule="evenodd" clip-rule="evenodd" d="M692.817 66.9779C692.812 66.9829 692.812 66.9829 692.807 66.9829C691.233 67.6362 689.837 68.6112 688.684 69.809C687.526 71.0166 686.616 72.4568 686.022 74.0604C685.428 75.6639 685.18 77.3566 685.274 79.0295C685.364 80.7073 685.804 82.3653 686.571 83.8946C686.576 83.8995 686.576 83.9095 686.581 83.9144C690.852 92.2292 699.588 101.578 701.097 116.268C702.018 125.231 700.191 136.179 693.035 150.131C693.035 150.136 693.03 150.141 693.03 150.146C692.149 151.898 691.679 153.798 691.614 155.709C691.55 157.624 691.906 159.554 692.669 161.361C693.431 163.172 694.579 164.766 695.999 166.053C697.425 167.349 699.127 168.334 701.003 168.923C701.008 168.923 701.008 168.923 701.008 168.928C708.353 171.22 718.063 173.244 728.041 172.482C736.87 171.809 745.888 168.958 753.743 162.346C766.923 151.135 770.382 132.338 767.002 114.189C763.696 96.4608 753.911 79.4699 741.137 71.1502C734.015 66.5276 725.581 64.1866 717.4 63.5481C708.081 62.8206 699.103 64.2954 692.817 66.9779ZM694.203 70.2791C700.073 67.8837 708.427 66.6959 717.059 67.5075C724.557 68.2153 732.273 70.4375 738.741 74.783C750.491 82.6474 759.187 98.6039 762.097 115.08C764.973 131.383 762.211 148.324 750.323 158.302C743.409 164.167 735.425 166.656 727.63 167.295C718.36 168.057 709.323 166.226 702.483 164.147C701.3 163.786 700.226 163.177 699.32 162.37C698.415 161.564 697.682 160.564 697.187 159.426C696.687 158.282 696.45 157.06 696.479 155.842C696.504 154.625 696.786 153.412 697.336 152.289C704.829 137.208 706.541 125.404 705.423 115.798C703.641 100.475 694.559 90.7592 689.981 82.1376C689.442 81.0982 689.12 79.9549 689.036 78.7968C688.956 77.6288 689.105 76.446 689.506 75.3225C689.907 74.194 690.526 73.1695 691.327 72.3133C692.129 71.457 693.099 70.7592 694.198 70.2791H694.203ZM720.37 97.2378C721.384 100.623 721.513 107.057 721.75 113.808C721.968 120.01 722.25 126.463 723.141 131.249C723.661 134.051 724.448 136.322 725.433 137.827C726.388 139.292 727.601 140.148 728.942 140.485C737.549 142.539 742.656 137.703 744.181 129.893C745.636 122.484 743.513 112.135 738.172 103.875C735.737 100.148 733.475 97.5695 731.441 95.8026C728.897 93.5952 726.68 92.5707 724.908 92.1352C724.873 92.1253 724.834 92.1153 724.794 92.1054C724.096 91.9817 723.389 92.0263 722.745 92.2589C722.107 92.4915 721.513 92.8726 721.063 93.412C720.612 93.9515 720.31 94.5801 720.197 95.2532C720.088 95.9114 720.127 96.5994 720.37 97.2428V97.2378ZM723.76 96.1045C723.755 96.0896 723.75 96.0747 723.745 96.0599L723.834 95.8223L724.022 95.8026C725.329 96.2035 726.908 97.1042 728.714 98.8117C730.461 100.46 732.367 102.84 734.401 106.236C738.806 113.516 740.439 122.469 739.088 128.859C738.103 133.501 735.292 136.639 730.154 135.402C729.961 135.362 729.858 135.159 729.714 134.951C729.397 134.491 729.125 133.907 728.877 133.229C728.204 131.383 727.729 128.953 727.343 126.221C725.893 115.961 725.75 101.752 723.76 96.1045Z" fill="white"/>
<path fill-rule="evenodd" clip-rule="evenodd" d="M282.912 94.8757C282.912 94.8757 273.287 81.9172 245.258 112.96C242.83 115.65 239.477 117.328 235.867 117.656C231.445 118.01 226.252 116.096 223.511 106.687C222.932 104.734 222.837 102.669 223.232 100.673C224.444 94.6135 229.987 82.1106 254.172 71.9346C254.243 71.9051 254.312 71.8756 254.383 71.8461C257.264 70.745 288.462 59.4645 293.059 87.3477C293.124 87.7377 293.212 88.1211 293.325 88.498C294.421 92.5848 298.32 112.353 277.165 125.59C274.88 127.013 272.837 128.786 271.104 130.847C275.408 126.639 273.375 128.314 271.557 130.329C270.723 131.27 270.611 132.643 271.275 133.708C271.942 134.773 273.232 135.268 274.441 134.927C276.137 134.442 278.224 133.587 280.72 132.125C283.907 130.267 287.536 129.304 291.224 129.336C291.54 129.346 291.864 129.356 292.194 129.376C296.855 129.628 301.163 131.935 303.955 135.675C306.75 139.414 307.741 144.199 306.665 148.738C306.324 150.196 305.803 151.75 305.061 153.395C298.728 167.428 277.604 170.604 259.477 170.302C241.346 170.001 234.022 155.797 236.947 138.152C239.872 120.504 271.21 92.9945 271.21 92.9945" fill="white"/>
<path fill-rule="evenodd" clip-rule="evenodd" d="M257.927 103.236C254.059 107.228 249.797 111.927 246.004 116.804C240.45 123.942 235.946 131.49 234.866 137.805C233.29 146.998 234.42 155.312 238.152 161.48C242.18 168.143 249.225 172.423 259.436 172.639C269.94 172.856 281.421 171.912 290.624 168.5C298.241 165.678 304.312 161.156 307.373 154.437C307.761 153.582 308.095 152.749 308.377 151.943C308.694 151.039 308.949 150.167 309.15 149.321C309.78 146.69 309.811 143.979 309.28 141.384C308.748 138.785 307.652 136.304 306.031 134.125C304.411 131.942 302.344 130.175 300.008 128.917C297.669 127.655 295.054 126.911 292.337 126.757L291.322 126.715C291.298 126.715 291.271 126.715 291.244 126.715C289.167 126.695 287.104 126.954 285.108 127.481C283.117 128.009 281.193 128.802 279.392 129.848C279.392 129.848 279.388 129.851 279.385 129.851C278.377 130.441 277.437 130.926 276.572 131.319C275.51 131.801 274.564 132.145 273.723 132.384L273.518 132.302L273.532 132.168C274.519 131.198 275.098 130.605 275.387 130.293C275.503 130.169 275.599 130.054 275.68 129.952C276.583 129.169 277.543 128.458 278.557 127.826C278.561 127.826 278.561 127.826 278.564 127.822C286.729 122.697 291.38 116.647 293.961 110.823C298.578 100.408 296.556 90.6578 295.793 87.8361C295.786 87.8131 295.779 87.7902 295.772 87.7705L295.578 86.9315C293.981 77.4372 289.538 72.0788 284.172 69.1752C272.449 62.8303 255.673 68.7917 253.532 69.6209L253.249 69.7388C242.401 74.3565 235.207 79.4298 230.426 84.1852C223.96 90.625 221.802 96.5569 221.083 100.241C221.083 100.244 221.083 100.247 221.08 100.247C220.855 101.42 220.77 102.613 220.831 103.796C220.893 104.983 221.093 106.156 221.437 107.3C223 112.57 225.309 115.706 227.777 117.512C230.443 119.465 233.354 119.954 236.031 119.731C236.037 119.727 236.048 119.727 236.055 119.727C238.118 119.531 240.106 118.951 241.924 118.033C243.739 117.112 245.384 115.86 246.763 114.317C250.886 109.702 254.597 106.071 257.927 103.236ZM271.819 126.321L272.197 125.987C273.317 125.017 274.509 124.139 275.769 123.355C282.858 118.931 286.947 113.743 289.204 108.706C293.161 99.8604 291.493 91.5623 290.873 89.2289L290.539 87.7639C288.959 77.9911 283.767 73.5733 277.791 71.9576C268.183 69.3587 256.937 73.4324 255.251 74.0682L255.095 74.1304C244.917 78.3647 238.128 83.0119 233.62 87.4198C228.012 92.906 226.027 97.9367 225.38 101.096C225.213 101.922 225.145 102.761 225.183 103.597C225.217 104.432 225.35 105.265 225.585 106.074C225.585 106.077 225.588 106.081 225.588 106.081C226.524 109.358 227.764 111.636 229.204 113.15C231.206 115.244 233.566 115.745 235.7 115.585C237.239 115.45 238.724 115.031 240.086 114.359C241.458 113.681 242.704 112.753 243.753 111.603C255.026 99.2476 263.443 93.7614 269.477 91.6148C280.229 87.7836 284.349 93.8106 284.349 93.8106C284.935 94.6004 284.771 95.7212 283.978 96.3111C283.185 96.8978 282.064 96.7339 281.475 95.9408C281.475 95.9408 278.772 92.6963 271.976 94.7118C269.657 96.8093 258.05 107.519 249.153 119.226C244.144 125.82 239.956 132.702 239.03 138.496C237.74 146.532 238.649 153.801 241.958 159.15C245.305 164.564 251.165 167.864 259.514 167.966C269.419 168.087 280.239 167.166 288.895 163.882C295.153 161.51 300.263 157.905 302.746 152.353C303.066 151.638 303.338 150.944 303.573 150.268C303.822 149.544 304.022 148.84 304.182 148.158C304.182 148.155 304.182 148.155 304.182 148.151C304.628 146.247 304.635 144.297 304.244 142.429C303.852 140.564 303.052 138.785 301.881 137.225C300.709 135.668 299.222 134.413 297.543 133.518C295.864 132.627 293.999 132.096 292.058 131.991C292.058 131.991 291.166 131.955 291.152 131.955C289.562 131.948 287.982 132.155 286.457 132.561C284.921 132.974 283.437 133.59 282.051 134.4C280.869 135.091 279.773 135.658 278.758 136.12C277.424 136.733 276.225 137.166 275.166 137.467C275.163 137.471 275.163 137.471 275.159 137.471C273.991 137.802 272.783 137.726 271.703 137.313C270.628 136.9 269.681 136.143 269.034 135.114C268.387 134.085 268.118 132.905 268.213 131.752C268.251 131.293 268.346 130.841 268.503 130.401C268.578 129.952 268.772 129.52 269.082 129.146C269.204 129.005 269.323 128.861 269.449 128.72L269.575 128.573C269.582 128.566 269.586 128.563 269.589 128.556C269.732 128.399 269.875 128.242 270.018 128.091C270.243 127.848 270.474 127.609 270.706 127.377L270.753 127.331L270.873 127.213L270.971 127.111L271.002 127.085C271.254 126.833 271.475 126.623 271.632 126.479C271.697 126.423 271.758 126.37 271.819 126.321Z" fill="white"/>
<path fill-rule="evenodd" clip-rule="evenodd" d="M533.336 112.492C532.996 113.702 532.83 114.958 532.839 116.216C532.886 119.713 534.048 125.225 541.392 123.724C550.157 121.933 548.097 89.7304 547.142 78.8324C546.791 75.0258 548.981 71.4375 552.53 70.0083C555.58 68.7804 559.844 68.9543 565.314 73.5625C578.539 84.706 586.932 151.342 548.393 161.347C512.867 170.57 511.783 142.822 510.562 128.4C506.588 81.394 529.978 72.7371 530.623 72.5051C530.634 72.5017 530.646 72.4983 530.658 72.4949C531.279 72.3039 543.339 68.8281 539.101 87.9362C535.756 103.016 533.977 110.049 533.336 112.492Z" fill="white"/>
<path fill-rule="evenodd" clip-rule="evenodd" d="M535.055 112.969C535.058 112.962 535.061 112.952 535.064 112.945C535.51 111.294 536.488 107.556 538.14 100.659C538.938 97.3333 539.893 93.2743 541.022 88.3591C542.783 80.6606 541.92 76.2469 540.357 73.7466C537.127 68.5893 530.554 70.3152 530.04 70.4721L529.913 70.5131C529.469 70.6666 518.899 74.364 512.465 90.2931C508.993 98.8921 506.717 111.182 508.1 128.608C508.815 137.483 509.69 151.062 517.518 159.02C523.314 164.911 532.88 168.08 549.057 163.911C564.427 159.893 572.932 147.559 576.623 132.92C580.291 118.382 579.189 101.604 575.796 89.1675C573.568 80.9915 570.273 74.6676 566.812 71.7819C563.703 69.1896 560.922 67.8867 558.505 67.3716C555.851 66.8054 553.578 67.1499 551.687 67.9242C549.462 68.8349 547.662 70.4176 546.48 72.3754C545.304 74.3265 544.733 76.6494 544.967 79.037C545.511 84.8459 546.412 96.8183 545.759 106.881C545.443 111.745 544.789 116.148 543.477 119.085C542.833 120.535 542.127 121.626 541.013 121.861C538.702 122.349 537.189 122.056 536.246 121.162C534.895 119.89 534.682 117.765 534.653 116.192C534.644 115.657 534.674 115.111 534.742 114.572C534.81 114.033 534.913 113.498 535.055 112.969ZM531.325 74.5005C531.683 74.3845 535.155 73.2691 536.884 75.9535C538.149 77.9114 538.492 81.4076 537.18 87.5098C535.853 93.7075 534.78 98.5476 533.932 102.266C532.726 107.566 531.976 110.585 531.606 112.024C531.414 112.703 531.269 113.399 531.172 114.098C531.074 114.804 531.027 115.517 531.027 116.23C531.027 116.233 531.027 116.237 531.027 116.24C531.042 118.665 531.624 121.858 533.681 123.847C535.285 125.399 537.794 126.371 541.772 125.586C543.536 125.235 545.044 124.061 546.232 122.138C547.68 119.798 548.673 116.199 549.273 111.97C550.833 100.993 549.881 85.5724 549.317 78.6448C549.317 78.6413 549.317 78.6379 549.317 78.6345C549.193 77.2121 549.55 75.8375 550.263 74.6812C550.972 73.5352 552.048 72.6142 553.369 72.0923C554.781 71.533 556.531 71.4033 558.614 72.1367C560.186 72.6927 561.912 73.7194 563.815 75.3396C566.753 77.8398 569.283 83.3996 571.133 90.4159C574.23 102.16 575.161 117.966 571.629 131.644C568.337 144.391 561.138 155.326 547.724 158.781C534.186 162.325 526.086 160.282 521.204 155.377C514.182 148.32 513.724 136.099 513.023 128.192C511.549 111.755 513.505 100.127 516.688 91.9713C522.064 78.2082 530.861 74.671 531.325 74.5005Z" fill="white"/>
<path fill-rule="evenodd" clip-rule="evenodd" d="M768.504 155.791C766.673 151.336 767.612 146.225 770.909 142.714C774.203 139.204 779.244 137.945 783.803 139.489C783.806 139.486 783.806 139.486 783.806 139.486C796.171 143.676 802.163 131.087 792.057 125.802C776.229 117.531 756.436 93.6996 784.795 72.3044C790.822 67.7542 798.428 65.8174 805.9 66.9329C806.386 67.0329 806.886 67.1159 807.39 67.2077C817.631 69.0948 830.937 75.5784 839.822 94.9964C842.391 100.57 841.333 107.143 837.149 111.631C836.703 112.115 836.227 112.559 835.727 112.957C829.555 117.836 812.704 99.016 807.517 99.577C801.431 100.235 816.295 111.849 820.547 114.309L820.55 114.308C830.887 120.284 836.516 131.978 834.733 143.785C832.953 155.591 824.129 165.104 812.488 167.765C804.684 169.559 797.019 170.584 790.549 170.057C776.947 168.953 771.052 161.937 768.504 155.791Z" fill="white"/>
<path fill-rule="evenodd" clip-rule="evenodd" d="M784.248 137.575C781.659 136.751 778.949 136.697 776.416 137.347C773.831 138.011 771.432 139.394 769.54 141.432C767.657 143.464 766.447 145.949 765.981 148.569C765.519 151.178 765.782 153.922 766.847 156.469C766.847 156.472 766.851 156.472 766.851 156.475C768.448 160.403 771.312 164.659 776.39 167.767C779.877 169.906 784.432 171.501 790.389 172.027C793.252 172.276 796.343 172.236 799.575 171.966C803.854 171.611 808.381 170.847 812.961 169.824C819.22 168.434 824.737 165.19 828.935 160.716C833.151 156.225 836.028 150.488 837.022 144.129C838.017 137.751 837.004 131.393 834.352 125.817C831.695 120.223 827.38 115.422 821.79 112.158C819.695 110.935 814.906 107.355 811.566 104.104C812.006 104.397 812.464 104.713 812.929 105.044C817.737 108.431 823.721 113.306 828.537 115.317C832.086 116.798 835.185 116.742 837.362 115.028L839.087 113.425C841.542 110.797 843.082 107.548 843.63 104.142C844.178 100.733 843.73 97.1661 842.219 93.8943C838.359 85.4947 833.697 79.4123 828.81 75.027C821.767 68.7099 814.244 65.8709 807.852 64.7117L806.414 64.4523C806.366 64.4426 806.321 64.4356 806.272 64.4259C802.202 63.835 798.096 64.0684 794.192 65.0765C790.291 66.0872 786.587 67.8609 783.319 70.3478C769.677 80.7417 766.618 91.7031 768.732 101.335C771.294 113.004 781.796 122.887 791.078 127.674C795.058 129.728 795.963 133.222 794.287 135.676C792.683 138.032 789.105 139.18 784.435 137.63C784.372 137.61 784.31 137.589 784.248 137.575ZM783.255 141.366C790.089 143.701 795.243 141.436 797.647 137.993C800.567 133.812 799.828 127.53 793.035 123.93C784.809 119.577 775.398 110.794 773.218 100.375C771.5 92.1461 774.558 83.0097 786.271 74.2608C789.03 72.1946 792.143 70.7308 795.421 69.9105C798.674 69.0931 802.089 68.9195 805.473 69.4308C805.485 69.4324 806.931 69.7062 806.931 69.7062C812.552 70.7589 819.154 73.3023 825.327 78.8895C829.748 82.8948 833.941 88.4469 837.424 96.0923C837.424 96.0953 837.425 96.0984 837.428 96.101C838.483 98.4 838.79 100.907 838.405 103.301C838.019 105.693 836.944 107.977 835.216 109.83C835.214 109.833 835.211 109.837 835.208 109.837L834.089 110.887C833.666 111.224 833.107 111.172 832.486 111.06C831.127 110.82 829.593 110.094 827.961 109.157C822.913 106.271 817.182 101.405 813.045 98.9266C810.68 97.5093 808.622 96.8698 807.242 97.0259C804.873 97.2892 803.926 98.5443 803.615 99.848C803.358 100.923 803.676 102.578 804.978 104.364C807.909 108.397 816.225 114.694 819.307 116.458C824.054 119.174 827.728 123.199 830.021 127.902C832.319 132.619 833.235 138.011 832.444 143.44C831.655 148.885 829.236 153.812 825.68 157.695C822.109 161.59 817.394 164.441 812.017 165.706C812.014 165.706 812.014 165.706 812.014 165.706C808.393 166.564 804.805 167.251 801.352 167.685C797.587 168.159 793.99 168.335 790.71 168.089C785.461 167.699 781.427 166.388 778.332 164.548C774.007 161.981 771.55 158.41 770.153 155.106C769.385 153.205 769.215 151.166 769.585 149.23C769.95 147.303 770.864 145.478 772.274 143.996C773.676 142.521 775.447 141.53 777.347 141.066C779.237 140.603 781.258 140.683 783.177 141.345L783.255 141.366ZM784.658 141.251C784.127 141.52 783.723 141.502 783.327 141.389C783.784 141.505 784.255 141.446 784.658 141.251ZM784.837 141.153C785.123 140.977 785.365 140.727 785.531 140.411C785.258 140.918 784.985 141.07 784.837 141.153Z" fill="white"/>
</g>
<defs>
<clipPath id="clip0_124_248">
<rect width="168.808" height="203" fill="white"/>
</clipPath>
<clipPath id="clip1_124_248">
<rect width="641.96" height="111.359" fill="white" transform="translate(219.909 62.2797)"/>
</clipPath>
</defs>
</svg>
